<?xml version="1.0" encoding="UTF-8"?>
<svg width="196px" height="196px" viewBox="0 0 196 196" version="1.1" xmlns="http://www.w3.org/2000/svg" xmlns:xlink="http://www.w3.org/1999/xlink">
    <!-- Generator: Sketch 43.2 (39069) - http://www.bohemiancoding.com/sketch -->
    <title>DIVVI-logo</title>
    <desc>Created with Sketch.</desc>
    <defs></defs>
    <g id="Page-1" stroke="none" stroke-width="1" fill="none" fill-rule="evenodd">
        <g id="DIVVI">
            <polygon id="Path-94" fill="#285299" transform="translate(160.871608, 66.355302) scale(-1, 1) translate(-160.871608, -66.355302) " points="135 35.5776062 152.425313 97.1329978 169.460706 97.1329978 186.743216 43.4498327 170.582036 43.4498327 160.871608 79.316423 150.655588 35.5776062"></polygon>
            <polygon id="Path-95" fill="#285299" points="119.686908 42.5978027 101.538607 97.1329978 83 97.132995 101.538607 42.5978027"></polygon>
            <polygon id="Path-95" fill="#4990E2" points="168.642206 101.305913 138.538607 187.535195 120 187.535192 151.493905 101.305913"></polygon>
            <polygon id="Path-95" fill="#285299" points="129.898934 15 123.947747 30.9999992 106 30.9999992 112.024692 15"></polygon>
            <polygon id="Path-94" fill="#4990E2" points="26 101 46.4831621 187.068665 69.012502 187.068665 98 115.661314 77.5677375 115.661314 61.1338237 160.029535 46.4831621 101"></polygon>
            <polygon id="Path-94" fill="#285299" points="4 10 24.4831621 96.0686648 45.2542694 96.0686648 79.7628734 49.4775642 24.4831621 10 30.8067688 35.1875849 56.8155727 53.0343324 40.2428045 72.9838115 30.8067688 35.1875849 24.4831621 10"></polygon>
        </g>
    </g>
</svg>